<svg fill="none" height="369" viewBox="0 0 551 369" width="551" xmlns="http://www.w3.org/2000/svg" xmlns:xlink="http://www.w3.org/1999/xlink"><linearGradient id="a" gradientUnits="userSpaceOnUse" x1=".489302" x2="548.828" y1="368.501" y2="368.501"><stop offset="0" stop-color="#d62587"/><stop offset="1" stop-color="#ff8f73"/></linearGradient><linearGradient id="b" gradientUnits="userSpaceOnUse" x1="36.1181" x2="79.1704" y1="301.462" y2="301.462"><stop offset=".0008" stop-color="#deebff"/><stop offset="1" stop-color="#c0b6f2" stop-opacity=".01"/></linearGradient><linearGradient id="c" gradientUnits="userSpaceOnUse" x1="4.26504" x2="399.077" y1="98.3548" y2="98.3548"><stop offset="0" stop-color="#403294"/><stop offset="1" stop-color="#4c9aff"/></linearGradient><linearGradient id="d"><stop offset="0" stop-color="#eae6ff"/><stop offset="1" stop-color="#fff"/></linearGradient><linearGradient id="e" gradientUnits="userSpaceOnUse" x1="502.47" x2="502.47" xlink:href="#d" y1="176.646" y2="113.733"/><linearGradient id="f" gradientUnits="userSpaceOnUse" x1="502.47" x2="502.47" xlink:href="#d" y1="254.946" y2="192.033"/><linearGradient id="g" gradientUnits="userSpaceOnUse" x1="502.47" x2="502.47" xlink:href="#d" y1="333.246" y2="270.333"/><clipPath id="h"><path d="m4.21906 35.4446h396v63h-396z"/></clipPath><clipPath id="i"><path d="m79.8191 113.745h423v63h-423z"/></clipPath><clipPath id="j"><path d="m79.8191 192.045h423v63h-423z"/></clipPath><clipPath id="k"><path d="m79.8191 270.345h423v63h-423z"/></clipPath><mask height="369" maskUnits="userSpaceOnUse" width="551" x="0" y="0"><path clip-rule="evenodd" d="m7.08574 244.709c-23.91794-93.05 13.88086-244.709 185.43826-244.709 171.558 0 351.036 121.713 357.414 195.774s-144.123 135.609-298.906 164.944c-154.7832 29.335-220.0283-22.96-243.94626-116.009z" fill="#fff" fill-rule="evenodd"/></mask><path clip-rule="evenodd" d="m7.08574 244.709c-23.91794-93.05 13.88086-244.709 185.43826-244.709 171.558 0 351.036 121.713 357.414 195.774s-144.123 135.609-298.906 164.944c-154.7832 29.335-220.0283-22.96-243.94626-116.009z" fill="url(#a)" fill-opacity=".7" fill-rule="evenodd"/><path d="m34.2 97.1v-4h-4v4zm3.6 0h4v-4h-4zm0 45.9h-4v4h4zm41.4 0h4v-4h-4zm0 3.6v4h4v-4zm-41.4 0v-4h-4v4zm0 75.145h-4v4h4zm41.4 0h4v-4h-4zm0 3.6v4h4v-4zm-41.4 0v-4h-4v4zm41.4 74.7h4v-4h-4zm0 3.6v4h4v-4zm-49-206.545v197.545h8v-197.545zm7.6-4h-3.6v8h3.6zm4 49.9v-45.9h-8v45.9zm-4 4h41.4v-8h-41.4zm37.4-4v3.6h8v-3.6zm4-.4h-41.4v8h41.4zm-37.4 79.145v-75.145h-8v75.145zm37.4-4h-41.4v8h41.4zm4 7.6v-3.6h-8v3.6zm-45.4 4h41.4v-8h-41.4zm4 65.3v-69.3h-8v69.3zm1.4 1.4c-.7732 0-1.4-.627-1.4-1.4h-8c0 5.191 4.2085 9.4 9.4 9.4zm36 0h-36v8h36zm4 7.6v-3.6h-8v3.6zm-40 4h36v-8h-36zm-13-13c0 7.179 5.8203 13 13 13v-8c-2.7614 0-5-2.239-5-5z" fill="url(#b)"/><g clip-path="url(#h)"><rect fill="url(#c)" height="63" rx="3.93615" width="396" x="4.21906" y="35.4446"/><path d="m25.42 72.3062h2.646l2.88-9.558 2.88 9.558h2.79l3.528-11.826h-2.196l-2.646 9.972-3.06-9.972h-2.412l-3.06 9.972-2.646-9.972h-2.232zm23.4925-5.382c0-2.52-1.044-3.888-3.042-3.888-1.296 0-2.322.612-2.898 1.71v-5.202h-2.034v12.762h2.034v-5.058c0-1.602.846-2.43 2.088-2.43 1.26 0 1.818.774 1.818 2.376v5.112h2.034zm5.7561-2.232c1.332 0 2.016.846 2.106 2.412h-4.41c.144-1.476.864-2.412 2.304-2.412zm3.6 7.254v-1.746c-.846.27-1.8.468-2.862.468-1.908 0-2.808-.792-3.024-2.178h6.354v-.702c0-2.79-1.152-4.752-4.014-4.752-2.826 0-4.356 1.98-4.356 4.752 0 2.844 1.512 4.698 4.986 4.698.99 0 2.142-.162 2.916-.54zm10.0678-5.022c0-2.466-1.098-3.888-3.15-3.888-1.224 0-2.232.612-2.79 1.692v-1.512h-2.034v9.09h2.034v-5.058c0-1.602.846-2.43 2.088-2.43 1.26 0 1.818.612 1.818 2.016v5.472h2.034zm7.4491 2.34v-4.266h2.178v-1.782h-2.178v-1.908h-1.998v1.908h-1.296v1.782h1.296v4.428c0 1.764.9 2.952 2.934 2.952.558 0 .918-.072 1.242-.144v-1.872c-.252.054-.558.108-.9.108-.846 0-1.278-.468-1.278-1.206zm11.9395-2.34c0-2.52-1.044-3.888-3.042-3.888-1.296 0-2.322.612-2.898 1.71v-5.202h-2.034v12.762h2.034v-5.058c0-1.602.846-2.43 2.088-2.43 1.26 0 1.818.774 1.818 2.376v5.112h2.034zm5.7561-2.232c1.332 0 2.016.846 2.106 2.412h-4.41c.144-1.476.864-2.412 2.304-2.412zm3.6 7.254v-1.746c-.846.27-1.8.468-2.862.468-1.908 0-2.808-.792-3.024-2.178h6.354v-.702c0-2.79-1.152-4.752-4.014-4.752-2.826 0-4.356 1.98-4.356 4.752 0 2.844 1.512 4.698 4.986 4.698.99 0 2.142-.162 2.916-.54zm11.5989-1.692c-.54.198-1.098.324-2.034.324-2.124 0-3.006-1.278-3.006-2.826s.864-2.862 2.952-2.862c.846 0 1.458.18 2.052.45v-1.836c-.738-.342-1.386-.468-2.268-.468-3.204 0-4.716 1.962-4.716 4.716 0 2.772 1.512 4.734 4.77 4.734.864 0 1.692-.144 2.25-.45zm9.561-3.33c0-2.52-1.044-3.888-3.042-3.888-1.296 0-2.322.612-2.898 1.71v-5.202h-2.034v12.762h2.034v-5.058c0-1.602.846-2.43 2.088-2.43 1.26 0 1.818.774 1.818 2.376v5.112h2.034zm5.756-2.232c1.332 0 2.016.846 2.106 2.412h-4.41c.144-1.476.864-2.412 2.304-2.412zm3.6 7.254v-1.746c-.846.27-1.8.468-2.862.468-1.908 0-2.808-.792-3.024-2.178h6.354v-.702c0-2.79-1.152-4.752-4.014-4.752-2.826 0-4.356 1.98-4.356 4.752 0 2.844 1.512 4.698 4.986 4.698.99 0 2.142-.162 2.916-.54zm8.627-1.692c-.54.198-1.098.324-2.034.324-2.124 0-3.006-1.278-3.006-2.826s.864-2.862 2.952-2.862c.846 0 1.458.18 2.052.45v-1.836c-.738-.342-1.386-.468-2.268-.468-3.204 0-4.716 1.962-4.716 4.716 0 2.772 1.512 4.734 4.77 4.734.864 0 1.692-.144 2.25-.45zm3.622 2.052v-4.212l3.492 4.212h2.52l-3.96-4.626 3.816-4.464h-2.466l-3.402 4.212v-7.884h-2.034v12.762zm10.669-.036v-1.746c-.18.018-.27.018-.432.018-.576 0-1.044-.252-1.044-.954v-10.044h-2.034v10.296c0 1.782 1.008 2.52 2.592 2.52.468 0 .774-.036.918-.09zm1-11.484c0 .81.576 1.296 1.35 1.296s1.35-.486 1.35-1.296-.576-1.278-1.35-1.278-1.35.468-1.35 1.278zm.324 11.52h2.034v-9.09h-2.034zm10.611-2.556c0-1.53-.918-2.358-3.114-2.844-1.494-.342-1.872-.666-1.872-1.224 0-.594.522-.918 1.512-.918.972 0 1.944.306 3.06.81v-1.872c-.684-.378-1.818-.666-3.042-.666-2.142 0-3.402.99-3.402 2.646 0 1.458.828 2.322 3.006 2.808 1.476.342 1.944.684 1.944 1.26 0 .594-.54 1.008-1.548 1.008-1.17 0-2.52-.432-3.312-.882v1.926c.702.36 1.854.684 3.258.684 2.502 0 3.51-1.134 3.51-2.736zm4.144-.486v-4.266h2.178v-1.782h-2.178v-1.908h-1.998v1.908h-1.296v1.782h1.296v4.428c0 1.764.9 2.952 2.934 2.952.558 0 .918-.072 1.242-.144v-1.872c-.252.054-.558.108-.9.108-.846 0-1.278-.468-1.278-1.206zm6.612-8.478c0 .81.576 1.296 1.35 1.296s1.35-.486 1.35-1.296-.576-1.278-1.35-1.278-1.35.468-1.35 1.278zm.324 11.52h2.034v-9.09h-2.034zm10.612-2.556c0-1.53-.918-2.358-3.114-2.844-1.494-.342-1.872-.666-1.872-1.224 0-.594.522-.918 1.512-.918.972 0 1.944.306 3.06.81v-1.872c-.684-.378-1.818-.666-3.042-.666-2.142 0-3.402.99-3.402 2.646 0 1.458.828 2.322 3.006 2.808 1.476.342 1.944.684 1.944 1.26 0 .594-.54 1.008-1.548 1.008-1.17 0-2.52-.432-3.312-.882v1.926c.702.36 1.854.684 3.258.684 2.502 0 3.51-1.134 3.51-2.736zm11.092.504c-.54.198-1.098.324-2.034.324-2.124 0-3.006-1.278-3.006-2.826s.864-2.862 2.952-2.862c.846 0 1.458.18 2.052.45v-1.836c-.738-.342-1.386-.468-2.268-.468-3.204 0-4.716 1.962-4.716 4.716 0 2.772 1.512 4.734 4.77 4.734.864 0 1.692-.144 2.25-.45zm5.493 2.25c2.754 0 4.374-1.998 4.374-4.752 0-2.772-1.62-4.716-4.374-4.716-2.772 0-4.392 1.944-4.392 4.716 0 2.754 1.62 4.752 4.392 4.752zm0-7.65c1.656 0 2.376 1.332 2.376 2.898s-.72 2.916-2.376 2.916c-1.674 0-2.412-1.35-2.412-2.916s.738-2.898 2.412-2.898zm13.93 2.394c0-1.602.846-2.43 2.088-2.43 1.26 0 1.818.774 1.818 2.376v5.112h2.034v-5.382c0-2.52-1.044-3.888-3.042-3.888-1.494 0-2.61.792-3.132 2.142-.414-1.368-1.404-2.142-2.916-2.142-1.224 0-2.232.612-2.79 1.692v-1.512h-2.034v9.09h2.034v-5.058c0-1.602.846-2.43 2.088-2.43 1.26 0 1.818.612 1.818 2.016v5.472h2.034zm14.308.522c0 1.872-.792 2.898-2.286 2.898-1.152 0-2.124-.774-2.124-2.538v-.738c0-1.764 1.044-2.538 2.25-2.538 1.404 0 2.16.972 2.16 2.916zm-1.602 4.716c2.43 0 3.618-2.124 3.618-4.716 0-2.664-1.152-4.734-3.51-4.734-1.35 0-2.358.648-2.916 1.818v-1.638h-2.034v12.6h2.034v-5.094c.54 1.17 1.53 1.764 2.808 1.764zm8.704-.216v-1.746c-.18.018-.27.018-.432.018-.576 0-1.044-.252-1.044-.954v-10.044h-2.034v10.296c0 1.782 1.008 2.52 2.592 2.52.468 0 .774-.036.918-.09zm5.053-7.578c1.332 0 2.016.846 2.106 2.412h-4.41c.144-1.476.864-2.412 2.304-2.412zm3.6 7.254v-1.746c-.846.27-1.8.468-2.862.468-1.908 0-2.808-.792-3.024-2.178h6.354v-.702c0-2.79-1.152-4.752-4.014-4.752-2.826 0-4.356 1.98-4.356 4.752 0 2.844 1.512 4.698 4.986 4.698.99 0 2.142-.162 2.916-.54zm4.65-2.682v-4.266h2.178v-1.782h-2.178v-1.908h-1.998v1.908h-1.296v1.782h1.296v4.428c0 1.764.9 2.952 2.934 2.952.558 0 .918-.072 1.242-.144v-1.872c-.252.054-.558.108-.9.108-.846 0-1.278-.468-1.278-1.206zm7.5-4.572c1.332 0 2.016.846 2.106 2.412h-4.41c.144-1.476.864-2.412 2.304-2.412zm3.6 7.254v-1.746c-.846.27-1.8.468-2.862.468-1.908 0-2.808-.792-3.024-2.178h6.354v-.702c0-2.79-1.152-4.752-4.014-4.752-2.826 0-4.356 1.98-4.356 4.752 0 2.844 1.512 4.698 4.986 4.698.99 0 2.142-.162 2.916-.54zm3.624-4.176c0-1.89.774-2.916 2.286-2.916 1.152 0 2.124.774 2.124 2.538v.738c0 1.764-1.08 2.538-2.268 2.538-1.386 0-2.142-.972-2.142-2.898zm4.41 4.536h2.034v-12.762h-2.034v5.292c-.522-1.152-1.494-1.8-2.772-1.8-2.466 0-3.654 2.16-3.654 4.734 0 2.682 1.134 4.716 3.474 4.716 1.332 0 2.394-.612 2.952-1.818z" fill="#fff"/></g><g clip-path="url(#i)"><rect fill="url(#e)" height="63" rx="3.93615" width="423" x="79.8191" y="113.745"/><path d="m102.724 144.613 2.3 5.993h2.082l2.336-5.993 1.321-4.4v10.393h2.137v-11.896h-3.404l-2.318 6.012-1.032 3.476-1.032-3.476-2.299-6.012h-3.6579v11.896h2.0639v-10.538zm14.033 1.43c0-1.901.779-2.933 2.3-2.933 1.158 0 2.136.779 2.136 2.553v.743c0 1.774-1.086 2.553-2.281 2.553-1.394 0-2.155-.978-2.155-2.916zm4.436 4.563h2.046v-9.143h-2.046v1.629c-.525-1.159-1.503-1.81-2.788-1.81-2.481 0-3.676 2.172-3.676 4.761 0 2.698 1.141 4.744 3.495 4.744 1.34 0 2.408-.615 2.969-1.828zm6.149-5.142c0-1.72 1.068-2.263 3.024-2.082v-2.046c-1.63-.091-2.517.67-3.024 1.847v-1.72h-2.01v9.143h2.01zm6.26 5.142v-4.237l3.513 4.237h2.535l-3.984-4.653 3.839-4.49h-2.481l-3.422 4.236v-7.93h-2.046v12.837zm12.779-3.06v-4.291h2.191v-1.792h-2.191v-1.92h-2.01v1.92h-1.304v1.792h1.304v4.454c0 1.775.905 2.97 2.951 2.97.562 0 .924-.073 1.25-.145v-1.883c-.254.054-.562.108-.906.108-.851 0-1.285-.47-1.285-1.213zm12.01-2.354c0-2.534-1.05-3.91-3.06-3.91-1.304 0-2.336.615-2.915 1.72v-5.233h-2.046v12.837h2.046v-5.088c0-1.611.851-2.444 2.1-2.444 1.268 0 1.829.779 1.829 2.39v5.142h2.046zm5.79-2.245c1.34 0 2.028.851 2.118 2.427h-4.436c.145-1.485.869-2.427 2.318-2.427zm3.621 7.297v-1.756c-.851.271-1.81.471-2.879.471-1.919 0-2.824-.797-3.042-2.191h6.392v-.706c0-2.807-1.159-4.78-4.038-4.78-2.842 0-4.381 1.991-4.381 4.78 0 2.86 1.52 4.725 5.015 4.725.996 0 2.155-.163 2.933-.543zm6.634-4.201c0-1.901.778-2.933 2.299-2.933 1.159 0 2.137.779 2.137 2.553v.743c0 1.774-1.087 2.553-2.282 2.553-1.394 0-2.154-.978-2.154-2.916zm4.436 4.563h2.046v-12.837h-2.046v5.323c-.525-1.159-1.503-1.81-2.789-1.81-2.48 0-3.675 2.172-3.675 4.761 0 2.698 1.14 4.744 3.494 4.744 1.34 0 2.408-.615 2.97-1.828zm3.976-3.73c0 2.499 1.104 3.911 3.15 3.911 1.25 0 2.263-.615 2.825-1.72v1.539h2.046v-9.143h-2.046v5.087c0 1.63-.851 2.445-2.101 2.445-1.267 0-1.828-.616-1.828-2.028v-5.504h-2.046zm13.956-3.929c1.34 0 2.028.851 2.119 2.427h-4.436c.144-1.485.869-2.427 2.317-2.427zm3.621 7.297v-1.756c-.851.271-1.81.471-2.879.471-1.919 0-2.824-.797-3.041-2.191h6.391v-.706c0-2.807-1.159-4.78-4.038-4.78-2.842 0-4.381 1.991-4.381 4.78 0 2.86 1.521 4.725 5.015 4.725.996 0 2.155-.163 2.933-.543zm6.634-4.201c0-1.901.778-2.933 2.299-2.933 1.159 0 2.137.779 2.137 2.553v.743c0 1.774-1.087 2.553-2.282 2.553-1.394 0-2.154-.978-2.154-2.916zm4.436 4.563h2.046v-12.837h-2.046v5.323c-.525-1.159-1.503-1.81-2.789-1.81-2.48 0-3.675 2.172-3.675 4.761 0 2.698 1.141 4.744 3.494 4.744 1.34 0 2.409-.615 2.97-1.828zm5.678-4.563c0-1.901.778-2.933 2.299-2.933 1.159 0 2.137.779 2.137 2.553v.743c0 1.774-1.086 2.553-2.281 2.553-1.395 0-2.155-.978-2.155-2.916zm4.436 4.563h2.046v-9.143h-2.046v1.629c-.525-1.159-1.503-1.81-2.788-1.81-2.481 0-3.676 2.172-3.676 4.761 0 2.698 1.141 4.744 3.494 4.744 1.34 0 2.409-.615 2.97-1.828zm6.71-3.06v-4.291h2.191v-1.792h-2.191v-1.92h-2.01v1.92h-1.303v1.792h1.303v4.454c0 1.775.906 2.97 2.952 2.97.561 0 .923-.073 1.249-.145v-1.883c-.254.054-.561.108-.905.108-.851 0-1.286-.47-1.286-1.213zm7.545-4.599c1.339 0 2.027.851 2.118 2.427h-4.436c.145-1.485.869-2.427 2.318-2.427zm3.621 7.297v-1.756c-.851.271-1.811.471-2.879.471-1.919 0-2.825-.797-3.042-2.191h6.392v-.706c0-2.807-1.159-4.78-4.038-4.78-2.843 0-4.382 1.991-4.382 4.78 0 2.86 1.521 4.725 5.016 4.725.995 0 2.154-.163 2.933-.543zm11.667-1.702c-.543.199-1.105.326-2.046.326-2.137 0-3.024-1.285-3.024-2.843 0-1.557.869-2.879 2.969-2.879.851 0 1.467.182 2.065.453v-1.847c-.743-.344-1.395-.47-2.282-.47-3.223 0-4.744 1.973-4.744 4.743 0 2.789 1.521 4.762 4.798 4.762.87 0 1.702-.145 2.264-.452zm5.525 2.263c2.771 0 4.4-2.009 4.4-4.78 0-2.788-1.629-4.743-4.4-4.743-2.788 0-4.418 1.955-4.418 4.743 0 2.771 1.63 4.78 4.418 4.78zm0-7.695c1.666 0 2.39 1.34 2.39 2.915 0 1.576-.724 2.934-2.39 2.934-1.684 0-2.426-1.358-2.426-2.934 0-1.575.742-2.915 2.426-2.915zm14.012 2.408c0-1.611.851-2.444 2.1-2.444 1.268 0 1.829.779 1.829 2.39v5.142h2.046v-5.414c0-2.534-1.05-3.91-3.06-3.91-1.503 0-2.625.796-3.151 2.154-.416-1.376-1.412-2.154-2.933-2.154-1.231 0-2.245.615-2.806 1.702v-1.521h-2.046v9.143h2.046v-5.088c0-1.611.851-2.444 2.1-2.444 1.268 0 1.829.616 1.829 2.028v5.504h2.046zm14.392.525c0 1.884-.796 2.916-2.299 2.916-1.159 0-2.137-.779-2.137-2.553v-.743c0-1.774 1.05-2.553 2.263-2.553 1.413 0 2.173.978 2.173 2.933zm-1.611 4.744c2.444 0 3.639-2.136 3.639-4.744 0-2.679-1.159-4.761-3.531-4.761-1.358 0-2.372.651-2.933 1.828v-1.647h-2.046v12.674h2.046v-5.124c.543 1.177 1.539 1.774 2.825 1.774zm8.756-.217v-1.756c-.181.018-.272.018-.435.018-.579 0-1.05-.254-1.05-.96v-10.103h-2.046v10.357c0 1.792 1.014 2.535 2.607 2.535.471 0 .779-.037.924-.091zm5.082-7.623c1.34 0 2.028.851 2.119 2.427h-4.436c.144-1.485.869-2.427 2.317-2.427zm3.622 7.297v-1.756c-.851.271-1.811.471-2.879.471-1.92 0-2.825-.797-3.042-2.191h6.391v-.706c0-2.807-1.159-4.78-4.037-4.78-2.843 0-4.382 1.991-4.382 4.78 0 2.86 1.521 4.725 5.015 4.725.996 0 2.155-.163 2.934-.543zm4.677-2.698v-4.291h2.191v-1.792h-2.191v-1.92h-2.01v1.92h-1.304v1.792h1.304v4.454c0 1.775.905 2.97 2.951 2.97.562 0 .924-.073 1.25-.145v-1.883c-.254.054-.562.108-.906.108-.851 0-1.285-.47-1.285-1.213zm7.544-4.599c1.34 0 2.028.851 2.119 2.427h-4.436c.145-1.485.869-2.427 2.317-2.427zm3.622 7.297v-1.756c-.851.271-1.811.471-2.879.471-1.92 0-2.825-.797-3.042-2.191h6.391v-.706c0-2.807-1.159-4.78-4.037-4.78-2.843 0-4.382 1.991-4.382 4.78 0 2.86 1.521 4.725 5.015 4.725.996 0 2.155-.163 2.934-.543z" fill="#354563"/></g><g clip-path="url(#j)"><rect fill="url(#f)" height="63" rx="3.93615" width="423" x="79.8191" y="192.045"/><path d="m102.724 222.913 2.3 5.993h2.082l2.336-5.993 1.321-4.4v10.393h2.137v-11.896h-3.404l-2.318 6.012-1.032 3.476-1.032-3.476-2.299-6.012h-3.6579v11.896h2.0639v-10.538zm16.423 6.192c2.77 0 4.4-2.009 4.4-4.78 0-2.788-1.63-4.744-4.4-4.744-2.788 0-4.418 1.956-4.418 4.744 0 2.771 1.63 4.78 4.418 4.78zm0-7.695c1.666 0 2.39 1.34 2.39 2.915 0 1.576-.724 2.934-2.39 2.934-1.684 0-2.426-1.358-2.426-2.934 0-1.575.742-2.915 2.426-2.915zm10.707 7.496 3.241-9.143h-2.064l-2.553 7.64-2.571-7.64h-2.083l3.241 9.143zm7.892-7.659c1.34 0 2.028.851 2.119 2.426h-4.436c.145-1.484.869-2.426 2.317-2.426zm3.622 7.297v-1.756c-.851.271-1.811.471-2.879.471-1.919 0-2.825-.797-3.042-2.191h6.391v-.706c0-2.807-1.158-4.781-4.037-4.781-2.843 0-4.382 1.992-4.382 4.781 0 2.86 1.521 4.725 5.016 4.725.995 0 2.154-.163 2.933-.543zm7.665-2.698v-4.291h2.191v-1.792h-2.191v-1.92h-2.01v1.92h-1.303v1.792h1.303v4.454c0 1.775.906 2.97 2.952 2.97.561 0 .923-.073 1.249-.145v-1.883c-.253.054-.561.108-.905.108-.851 0-1.286-.47-1.286-1.213zm12.01-2.354c0-2.534-1.05-3.911-3.06-3.911-1.303 0-2.335.616-2.915 1.721v-5.233h-2.046v12.837h2.046v-5.088c0-1.611.851-2.444 2.1-2.444 1.268 0 1.829.779 1.829 2.39v5.142h2.046zm5.79-2.245c1.34 0 2.028.851 2.119 2.426h-4.436c.144-1.484.869-2.426 2.317-2.426zm3.622 7.297v-1.756c-.851.271-1.811.471-2.879.471-1.92 0-2.825-.797-3.042-2.191h6.391v-.706c0-2.807-1.159-4.781-4.037-4.781-2.843 0-4.382 1.992-4.382 4.781 0 2.86 1.521 4.725 5.015 4.725.996 0 2.155-.163 2.934-.543zm11.666-1.702c-.543.199-1.104.326-2.046.326-2.136 0-3.023-1.286-3.023-2.843s.869-2.879 2.969-2.879c.851 0 1.467.181 2.064.453v-1.847c-.742-.344-1.394-.471-2.281-.471-3.223 0-4.744 1.974-4.744 4.744 0 2.789 1.521 4.762 4.798 4.762.869 0 1.702-.145 2.263-.452zm3.136-2.499c0-1.901.779-2.933 2.299-2.933 1.159 0 2.137.779 2.137 2.553v.743c0 1.774-1.086 2.553-2.281 2.553-1.395 0-2.155-.978-2.155-2.916zm4.436 4.563h2.046v-9.143h-2.046v1.629c-.525-1.159-1.503-1.811-2.788-1.811-2.481 0-3.676 2.173-3.676 4.762 0 2.698 1.141 4.744 3.495 4.744 1.339 0 2.408-.615 2.969-1.828zm6.149-5.142c0-1.72 1.068-2.263 3.024-2.082v-2.046c-1.63-.091-2.517.67-3.024 1.847v-1.72h-2.01v9.143h2.01zm5.612.579c0-1.901.778-2.933 2.299-2.933 1.159 0 2.137.779 2.137 2.553v.743c0 1.774-1.087 2.553-2.282 2.553-1.394 0-2.154-.978-2.154-2.916zm4.436 4.563h2.046v-12.837h-2.046v5.323c-.525-1.159-1.503-1.811-2.789-1.811-2.48 0-3.675 2.173-3.675 4.762 0 2.698 1.14 4.744 3.494 4.744 1.34 0 2.408-.615 2.97-1.828zm9.698-3.06v-4.291h2.191v-1.792h-2.191v-1.92h-2.01v1.92h-1.303v1.792h1.303v4.454c0 1.775.906 2.97 2.952 2.97.561 0 .923-.073 1.249-.145v-1.883c-.254.054-.561.108-.905.108-.851 0-1.286-.47-1.286-1.213zm7.635 3.259c2.77 0 4.4-2.009 4.4-4.78 0-2.788-1.63-4.744-4.4-4.744-2.788 0-4.418 1.956-4.418 4.744 0 2.771 1.63 4.78 4.418 4.78zm0-7.695c1.666 0 2.39 1.34 2.39 2.915 0 1.576-.724 2.934-2.39 2.934-1.684 0-2.426-1.358-2.426-2.934 0-1.575.742-2.915 2.426-2.915zm13.849-.742c0-.761-.452-1.231-1.213-1.231h-.09c.181-.888.869-1.304 1.684-1.358v-1.25c-1.956.109-3.042 1.34-3.042 3.187 0 1.412.597 1.919 1.394 1.919.76 0 1.267-.471 1.267-1.267zm-3.15 0c0-.761-.453-1.231-1.213-1.231h-.091c.181-.888.869-1.304 1.684-1.358v-1.25c-1.955.109-3.042 1.34-3.042 3.187 0 1.412.598 1.919 1.394 1.919.761 0 1.268-.471 1.268-1.267zm9.713-1.666c2.571 0 3.729 1.376 3.729 4.02 0 2.607-1.213 3.892-3.639 3.892h-2.444v-7.912zm-4.527 9.904h4.599c3.911 0 5.812-2.317 5.812-5.921 0-3.567-1.883-5.975-5.812-5.975h-4.599zm16.031.199c2.77 0 4.4-2.009 4.4-4.78 0-2.788-1.63-4.744-4.4-4.744-2.788 0-4.418 1.956-4.418 4.744 0 2.771 1.63 4.78 4.418 4.78zm0-7.695c1.666 0 2.39 1.34 2.39 2.915 0 1.576-.724 2.934-2.39 2.934-1.684 0-2.426-1.358-2.426-2.934 0-1.575.742-2.915 2.426-2.915zm14.012 2.082c0-2.48-1.105-3.911-3.169-3.911-1.231 0-2.245.616-2.807 1.702v-1.52h-2.046v9.143h2.046v-5.088c0-1.611.851-2.444 2.101-2.444 1.267 0 1.829.616 1.829 2.028v5.504h2.046zm5.772-2.245c1.34 0 2.028.851 2.118 2.426h-4.436c.145-1.484.869-2.426 2.318-2.426zm3.621 7.297v-1.756c-.851.271-1.81.471-2.879.471-1.919 0-2.824-.797-3.042-2.191h6.392v-.706c0-2.807-1.159-4.781-4.038-4.781-2.842 0-4.381 1.992-4.381 4.781 0 2.86 1.52 4.725 5.015 4.725.996 0 2.155-.163 2.933-.543zm1.599-10.447c0 .76.453 1.231 1.213 1.231h.091c-.181.887-.869 1.304-1.684 1.358v1.249c1.956-.108 3.042-1.34 3.042-3.186 0-1.413-.598-1.92-1.394-1.92-.761 0-1.268.471-1.268 1.268zm3.151 0c0 .76.452 1.231 1.213 1.231h.09c-.181.887-.869 1.304-1.683 1.358v1.249c1.955-.108 3.041-1.34 3.041-3.186 0-1.413-.597-1.92-1.394-1.92-.76 0-1.267.471-1.267 1.268z" fill="#354563"/></g><g clip-path="url(#k)"><rect fill="url(#g)" height="63" rx="3.93615" width="423" x="79.8191" y="270.345"/><path d="m108.029 299.439c0-2.553-1.484-4.129-4.49-4.129h-4.3819v11.896h2.1729v-3.639h2.209c3.006 0 4.49-1.485 4.49-4.128zm-4.707 2.227h-1.992v-4.382h1.992c1.865 0 2.571.887 2.571 2.191 0 1.358-.706 2.263-2.571 2.191zm9.937 5.739c2.77 0 4.4-2.009 4.4-4.78 0-2.788-1.63-4.744-4.4-4.744-2.788 0-4.418 1.956-4.418 4.744 0 2.771 1.63 4.78 4.418 4.78zm0-7.695c1.666 0 2.39 1.34 2.39 2.915 0 1.576-.724 2.934-2.39 2.934-1.684 0-2.426-1.358-2.426-2.934 0-1.575.742-2.915 2.426-2.915zm12.527 4.925c0-1.539-.923-2.372-3.132-2.861-1.503-.344-1.883-.67-1.883-1.231 0-.597.525-.923 1.52-.923.978 0 1.956.308 3.079.814v-1.883c-.689-.38-1.829-.67-3.06-.67-2.155 0-3.423.996-3.423 2.662 0 1.467.833 2.336 3.024 2.825 1.485.344 1.956.688 1.956 1.267 0 .598-.543 1.014-1.557 1.014-1.177 0-2.535-.434-3.332-.887v1.937c.706.362 1.865.688 3.277.688 2.517 0 3.531-1.14 3.531-2.752zm4.168-.489v-4.291h2.191v-1.792h-2.191v-1.92h-2.009v1.92h-1.304v1.792h1.304v4.454c0 1.775.905 2.97 2.951 2.97.561 0 .923-.073 1.249-.145v-1.883c-.253.054-.561.108-.905.108-.851 0-1.286-.47-1.286-1.213zm8.517-1.503c0-1.901.778-2.933 2.299-2.933 1.159 0 2.137.779 2.137 2.553v.743c0 1.774-1.087 2.553-2.282 2.553-1.394 0-2.154-.978-2.154-2.916zm4.436 4.563h2.046v-9.143h-2.046v1.629c-.525-1.159-1.503-1.811-2.789-1.811-2.48 0-3.675 2.173-3.675 4.762 0 2.698 1.14 4.744 3.494 4.744 1.34 0 2.408-.615 2.97-1.828zm13.699-2.064c-.543.199-1.104.326-2.046.326-2.136 0-3.023-1.286-3.023-2.843s.869-2.879 2.969-2.879c.851 0 1.467.182 2.064.453v-1.847c-.742-.344-1.394-.471-2.281-.471-3.223 0-4.744 1.974-4.744 4.744 0 2.789 1.521 4.762 4.798 4.762.869 0 1.702-.145 2.263-.452zm5.526 2.263c2.77 0 4.4-2.009 4.4-4.78 0-2.788-1.63-4.744-4.4-4.744-2.788 0-4.418 1.956-4.418 4.744 0 2.771 1.63 4.78 4.418 4.78zm0-7.695c1.666 0 2.39 1.34 2.39 2.915 0 1.576-.724 2.934-2.39 2.934-1.684 0-2.426-1.358-2.426-2.934 0-1.575.742-2.915 2.426-2.915zm14.012 2.408c0-1.611.851-2.444 2.1-2.444 1.267 0 1.829.779 1.829 2.39v5.142h2.046v-5.414c0-2.534-1.051-3.911-3.06-3.911-1.503 0-2.626.797-3.151 2.155-.416-1.376-1.412-2.155-2.933-2.155-1.231 0-2.245.616-2.807 1.702v-1.52h-2.046v9.143h2.046v-5.088c0-1.611.851-2.444 2.101-2.444 1.267 0 1.829.616 1.829 2.028v5.504h2.046zm15.931 0c0-1.611.851-2.444 2.1-2.444 1.268 0 1.829.779 1.829 2.39v5.142h2.046v-5.414c0-2.534-1.05-3.911-3.06-3.911-1.503 0-2.625.797-3.15 2.155-.417-1.376-1.413-2.155-2.934-2.155-1.231 0-2.245.616-2.806 1.702v-1.52h-2.046v9.143h2.046v-5.088c0-1.611.851-2.444 2.1-2.444 1.268 0 1.829.616 1.829 2.028v5.504h2.046zm11.749-2.571c1.34 0 2.028.851 2.118 2.427h-4.436c.145-1.485.869-2.427 2.318-2.427zm3.621 7.297v-1.756c-.851.271-1.811.471-2.879.471-1.919 0-2.824-.797-3.042-2.191h6.392v-.706c0-2.807-1.159-4.781-4.038-4.781-2.843 0-4.382 1.992-4.382 4.781 0 2.86 1.521 4.725 5.016 4.725.996 0 2.155-.163 2.933-.543zm10.127-5.052c0-2.48-1.104-3.911-3.168-3.911-1.231 0-2.245.616-2.807 1.702v-1.52h-2.046v9.143h2.046v-5.088c0-1.611.851-2.444 2.101-2.444 1.267 0 1.828.616 1.828 2.028v5.504h2.046zm4.505 2.354v-4.291h2.191v-1.792h-2.191v-1.92h-2.01v1.92h-1.303v1.792h1.303v4.454c0 1.775.906 2.97 2.952 2.97.561 0 .923-.073 1.249-.145v-1.883c-.253.054-.561.108-.905.108-.851 0-1.286-.47-1.286-1.213zm11.848-5.178c0-.761-.453-1.231-1.213-1.231h-.091c.181-.888.869-1.304 1.684-1.358v-1.25c-1.955.109-3.042 1.34-3.042 3.187 0 1.412.598 1.919 1.395 1.919.76 0 1.267-.47 1.267-1.267zm-3.15 0c0-.761-.453-1.231-1.214-1.231h-.09c.181-.888.869-1.304 1.684-1.358v-1.25c-1.956.109-3.042 1.34-3.042 3.187 0 1.412.597 1.919 1.394 1.919.761 0 1.268-.47 1.268-1.267zm9.585-1.72c1.847 0 2.463.796 2.463 1.955 0 1.231-.598 1.956-2.463 1.956h-2.154v-3.911zm4.636 1.919c0-2.39-1.413-3.857-4.328-3.857h-4.635v11.896h2.173v-4.182h2.462.018l2.336 4.182h2.553l-2.734-4.526c1.448-.544 2.155-1.757 2.155-3.513zm5.473.38c1.34 0 2.028.851 2.118 2.427h-4.436c.145-1.485.869-2.427 2.318-2.427zm3.621 7.297v-1.756c-.851.271-1.811.471-2.879.471-1.919 0-2.824-.797-3.042-2.191h6.392v-.706c0-2.807-1.159-4.781-4.038-4.781-2.843 0-4.382 1.992-4.382 4.781 0 2.86 1.521 4.725 5.016 4.725.996 0 2.154-.163 2.933-.543zm7.176.362 3.241-9.143h-2.064l-2.553 7.64-2.571-7.64h-2.082l3.241 9.143zm4.064-11.588c0 .815.58 1.304 1.358 1.304.779 0 1.358-.489 1.358-1.304s-.579-1.285-1.358-1.285c-.778 0-1.358.47-1.358 1.285zm.326 11.588h2.046v-9.143h-2.046zm7.976-7.659c1.34 0 2.028.851 2.119 2.427h-4.436c.144-1.485.869-2.427 2.317-2.427zm3.621 7.297v-1.756c-.851.271-1.81.471-2.879.471-1.919 0-2.824-.797-3.041-2.191h6.391v-.706c0-2.807-1.159-4.781-4.038-4.781-2.842 0-4.381 1.992-4.381 4.781 0 2.86 1.521 4.725 5.015 4.725.996 0 2.155-.163 2.933-.543zm13.64.362 3.024-9.143h-2.1l-2.227 7.622-2.427-7.622h-1.973l-2.408 7.622-2.227-7.622h-2.155l3.024 9.143h2.589l1.358-4.074.76-2.951.761 2.951 1.358 4.074zm7.671-7.659c1.34 0 2.028.851 2.118 2.427h-4.436c.145-1.485.869-2.427 2.318-2.427zm3.621 7.297v-1.756c-.851.271-1.811.471-2.879.471-1.919 0-2.825-.797-3.042-2.191h6.392v-.706c0-2.807-1.159-4.781-4.038-4.781-2.843 0-4.382 1.992-4.382 4.781 0 2.86 1.521 4.725 5.016 4.725.996 0 2.154-.163 2.933-.543zm3.645-4.201c0-1.901.779-2.933 2.3-2.933 1.158 0 2.136.779 2.136 2.553v.743c0 1.774-1.086 2.553-2.281 2.553-1.394 0-2.155-.978-2.155-2.916zm4.436 4.563h2.046v-12.837h-2.046v5.323c-.525-1.159-1.503-1.811-2.788-1.811-2.481 0-3.676 2.173-3.676 4.762 0 2.698 1.141 4.744 3.495 4.744 1.34 0 2.408-.615 2.969-1.828zm8.666-4.563c0-1.901.779-2.933 2.3-2.933 1.159 0 2.136.779 2.136 2.553v.743c0 1.774-1.086 2.553-2.281 2.553-1.394 0-2.155-.978-2.155-2.916zm4.436 4.563h2.046v-9.143h-2.046v1.629c-.525-1.159-1.502-1.811-2.788-1.811-2.48 0-3.676 2.173-3.676 4.762 0 2.698 1.141 4.744 3.495 4.744 1.34 0 2.408-.615 2.969-1.828zm12.161-5.414c0-2.48-1.105-3.911-3.169-3.911-1.231 0-2.245.616-2.807 1.702v-1.52h-2.046v9.143h2.046v-5.088c0-1.611.851-2.444 2.101-2.444 1.267 0 1.829.616 1.829 2.028v5.504h2.046zm3.472.851c0-1.901.779-2.933 2.3-2.933 1.159 0 2.136.779 2.136 2.553v.743c0 1.774-1.086 2.553-2.281 2.553-1.394 0-2.155-.978-2.155-2.916zm4.436 4.563h2.046v-12.837h-2.046v5.323c-.525-1.159-1.502-1.811-2.788-1.811-2.481 0-3.676 2.173-3.676 4.762 0 2.698 1.141 4.744 3.495 4.744 1.34 0 2.408-.615 2.969-1.828zm8.667-4.563c0-1.901.778-2.933 2.299-2.933 1.159 0 2.137.779 2.137 2.553v.743c0 1.774-1.087 2.553-2.282 2.553-1.394 0-2.154-.978-2.154-2.916zm4.436 4.563h2.046v-9.143h-2.046v1.629c-.525-1.159-1.503-1.811-2.789-1.811-2.48 0-3.675 2.173-3.675 4.762 0 2.698 1.141 4.744 3.494 4.744 1.34 0 2.408-.615 2.97-1.828zm10.621-4.563c0 1.884-.797 2.916-2.3 2.916-1.159 0-2.136-.779-2.136-2.553v-.743c0-1.774 1.05-2.553 2.263-2.553 1.412 0 2.173.978 2.173 2.933zm-1.612 4.744c2.445 0 3.64-2.136 3.64-4.744 0-2.679-1.159-4.762-3.531-4.762-1.358 0-2.372.652-2.933 1.829v-1.647h-2.046v12.674h2.046v-5.124c.543 1.177 1.539 1.774 2.824 1.774zm11.726-4.744c0 1.884-.797 2.916-2.3 2.916-1.158 0-2.136-.779-2.136-2.553v-.743c0-1.774 1.05-2.553 2.263-2.553 1.412 0 2.173.978 2.173 2.933zm-1.612 4.744c2.445 0 3.64-2.136 3.64-4.744 0-2.679-1.159-4.762-3.531-4.762-1.358 0-2.372.652-2.933 1.829v-1.647h-2.046v12.674h2.046v-5.124c.543 1.177 1.539 1.774 2.824 1.774zm7.254-5.323c0-1.72 1.068-2.263 3.023-2.082v-2.046c-1.629-.091-2.516.67-3.023 1.847v-1.72h-2.01v9.143h2.01zm8.002 5.341c2.77 0 4.399-2.009 4.399-4.78 0-2.788-1.629-4.744-4.399-4.744-2.789 0-4.418 1.956-4.418 4.744 0 2.771 1.629 4.78 4.418 4.78zm0-7.695c1.665 0 2.39 1.34 2.39 2.915 0 1.576-.725 2.934-2.39 2.934-1.684 0-2.427-1.358-2.427-2.934 0-1.575.743-2.915 2.427-2.915zm10.706 7.496 3.241-9.143h-2.064l-2.553 7.64-2.571-7.64h-2.082l3.241 9.143zm7.893-7.659c1.34 0 2.028.851 2.118 2.427h-4.436c.145-1.485.869-2.427 2.318-2.427zm3.621 7.297v-1.756c-.851.271-1.811.471-2.879.471-1.919 0-2.824-.797-3.042-2.191h6.392v-.706c0-2.807-1.159-4.781-4.038-4.781-2.843 0-4.382 1.992-4.382 4.781 0 2.86 1.521 4.725 5.016 4.725.996 0 2.154-.163 2.933-.543zm3.645-4.201c0-1.901.779-2.933 2.3-2.933 1.159 0 2.136.779 2.136 2.553v.743c0 1.774-1.086 2.553-2.281 2.553-1.394 0-2.155-.978-2.155-2.916zm4.436 4.563h2.046v-12.837h-2.046v5.323c-.525-1.159-1.503-1.811-2.788-1.811-2.481 0-3.676 2.173-3.676 4.762 0 2.698 1.141 4.744 3.495 4.744 1.34 0 2.408-.615 2.969-1.828zm4.393-11.896v7.967h2.118v-7.967zm-.326 10.701c0 .869.579 1.376 1.376 1.376.815 0 1.412-.507 1.412-1.376 0-.887-.597-1.412-1.412-1.412-.797 0-1.376.525-1.376 1.412zm4.322-9.614c0 .76.452 1.231 1.213 1.231h.09c-.181.887-.869 1.304-1.684 1.358v1.249c1.956-.108 3.042-1.34 3.042-3.186 0-1.413-.597-1.92-1.394-1.92-.76 0-1.267.471-1.267 1.268zm3.15 0c0 .76.453 1.231 1.213 1.231h.091c-.181.887-.869 1.304-1.684 1.358v1.249c1.955-.108 3.042-1.34 3.042-3.186 0-1.413-.598-1.92-1.394-1.92-.761 0-1.268.471-1.268 1.268z" fill="#354563"/></g></svg>